# xmcd
# 
# Track frame offsets:
#     150
#     18887
#     41296
#     58208
#     73936
#     88900
#     110905
#     127445
#     143654
#     159032
#     173475
#     185611
#     199116
#     213012
#     227232
#     243615
#     258602
#     274988
# 
# Disc length: 3913
# 
# Revision: 2
# Processed by: cddbd v1.5.2PL0 Copyright (c) Steve Scherf et al.
# Submitted via: fre:ac v1.0.31
# 
DISCID=100f4712
DTITLE=Motown - Complete Motown Singles - Volume 12B - Disc 74
DYEAR=2013
DGENRE=R&B
TTITLE0=Stevie Wonder - Superstition (stereo)
TTITLE1=Stevie Wonder - You've Got It Bad, Girl (stereo)
TTITLE2=The Sisters Love - You've Got My Mind (stereo)
TTITLE3=The Sisters Love - Try It, You'll Like It (stereo)
TTITLE4=Repairs - Songwriter (stereo)
TTITLE5=Repairs - Fiddler (stereo)
TTITLE6=Bobby Darin - Average People (stereo)
TTITLE7=Bobby Darin - Something In Her Love (stereo)
TTITLE8=Celebration - Since I Met You, There's No Magic (stereo)
TTITLE9=Celebration - The Circle Again (stereo)
TTITLE10=G.C. Cameron and Willie Hutch - Come Get This Thang (stereo)
TTITLE11=G.C. Cameron and Willie Hutch - My Woman (stereo)
TTITLE12=Jermaine Jackson - Daddy's Home (stereo)
TTITLE13=Jermaine Jackson - Take Me In Your Arms (Rock Me A Little While) (stereo)
TTITLE14=Smokey Robinson and The Miracles - I Can't Stand To See You Cry (mono single version)
TTITLE15=Smokey Robinson and The Miracles - With Your Love Came (stereo)
TTITLE16=Smokey Robinson and The Miracles - I Can't Stand To See You Cry (stereo promo version)
TTITLE17=Bobby Darin - Happy (Love Theme from 'Lady Sings The Blues') (stereo)
EXTD=
EXTT0=
EXTT1=
EXTT2=
EXTT3=
EXTT4=
EXTT5=
EXTT6=
EXTT7=
EXTT8=
EXTT9=
EXTT10=
EXTT11=
EXTT12=
EXTT13=
EXTT14=
EXTT15=
EXTT16=
EXTT17=
PLAYORDER=
